HIERARCHY
ROOT pelvis
{
	OFFSET 0.003123 -0.351407 0.012037
	CHANNELS 6 Xposition Yposition Zposition Zrotation Yrotation Xrotation 
	JOINT left_hip
	{
		OFFSET 0.058189 -0.092763 -0.026001
		CHANNELS 3 Zrotation Yrotation Xrotation
		JOINT left_knee
		{
			OFFSET 0.054695 -0.378753 -0.009396
			CHANNELS 3 Zrotation Yrotation Xrotation
			JOINT left_ankle
			{
				OFFSET -0.043453 -0.403059 -0.031876
				CHANNELS 3 Zrotation Yrotation Xrotation
				JOINT left_foot
				{
					OFFSET 0.047257 -0.057997 0.118216
					CHANNELS 3 Zrotation Yrotation Xrotation
					End Site
					{
						OFFSET 0.000000 0.000000 0.000000
					}
				}
			}
		}
	}
	JOINT right_hip
	{
		OFFSET -0.063267 -0.103908 -0.021250
		CHANNELS 3 Zrotation Yrotation Xrotation
		JOINT right_knee
		{
			OFFSET -0.044210 -0.362380 -0.016824
			CHANNELS 3 Zrotation Yrotation Xrotation
			JOINT right_ankle
			{
				OFFSET 0.015417 -0.410728 -0.020192
				CHANNELS 3 Zrotation Yrotation Xrotation
				JOINT right_foot
				{
					OFFSET -0.038812 -0.058328 0.119049
					CHANNELS 3 Zrotation Yrotation Xrotation
					End Site
					{
						OFFSET 0.000000 0.000000 0.000000
					}
				}
			}
		}
	}
	JOINT spine_1
	{
		OFFSET -0.002763 0.109891 -0.027618
		CHANNELS 3 Zrotation Yrotation Xrotation
		JOINT spine_2
		{
			OFFSET 0.009448 0.131853 -0.005940
			CHANNELS 3 Zrotation Yrotation Xrotation
			JOINT spine_3
			{
				OFFSET -0.011330 0.052235 0.028447
				CHANNELS 3 Zrotation Yrotation Xrotation
				JOINT neck
				{
					OFFSET -0.012164 0.165167 -0.031615
					CHANNELS 3 Zrotation Yrotation Xrotation
					JOINT head
					{
						OFFSET 0.024783 0.160452 0.020737
						CHANNELS 3 Zrotation Yrotation Xrotation
						End Site
						{
							OFFSET 0.000000 0.000000 0.000000
						}
					}
				}
				JOINT left_collar
				{
					OFFSET 0.046364 0.084944 -0.007220
					CHANNELS 3 Zrotation Yrotation Xrotation
					JOINT left_shoulder
					{
						OFFSET 0.119239 0.057728 -0.015461
						CHANNELS 3 Zrotation Yrotation Xrotation
						JOINT left_elbow
						{
							OFFSET 0.254123 -0.072151 -0.042459
							CHANNELS 3 Zrotation Yrotation Xrotation
							JOINT left_wrist
							{
								OFFSET 0.251987 0.023221 -0.002472
								CHANNELS 3 Zrotation Yrotation Xrotation
								JOINT left_index_1
								{
									OFFSET 0.101902 -0.008688 0.019351
									CHANNELS 3 Zrotation Yrotation Xrotation
									JOINT left_index_2
									{
										OFFSET 0.030149 -0.011154 0.001151
										CHANNELS 3 Zrotation Yrotation Xrotation
										JOINT left_index_3
										{
											OFFSET 0.006504 -0.021577 -0.002433
											CHANNELS 3 Zrotation Yrotation Xrotation
											End Site
											{
												OFFSET 0.000000 0.000000 0.000000
											}
										}
									}
								}
								JOINT left_middle_1
								{
									OFFSET 0.109398 -0.006328 -0.003981
									CHANNELS 3 Zrotation Yrotation Xrotation
									JOINT left_middle_2
									{
										OFFSET 0.026472 -0.015218 -0.004641
										CHANNELS 3 Zrotation Yrotation Xrotation
										JOINT left_middle_3
										{
											OFFSET 0.005022 -0.023347 -0.001911
											CHANNELS 3 Zrotation Yrotation Xrotation
											End Site
											{
												OFFSET 0.000000 0.000000 0.000000
											}
										}
									}
								}
								JOINT left_pinky_1
								{
									OFFSET 0.084047 -0.014539 -0.043750
									CHANNELS 3 Zrotation Yrotation Xrotation
									JOINT left_pinky_2
									{
										OFFSET 0.012124 -0.014448 -0.005375
										CHANNELS 3 Zrotation Yrotation Xrotation
										JOINT left_pinky_3
										{
											OFFSET 0.003798 -0.018853 0.000167
											CHANNELS 3 Zrotation Yrotation Xrotation
											End Site
											{
												OFFSET 0.000000 0.000000 0.000000
											}
										}
									}
								}
								JOINT left_ring_1
								{
									OFFSET 0.097444 -0.009268 -0.027345
									CHANNELS 3 Zrotation Yrotation Xrotation
									JOINT left_ring_2
									{
										OFFSET 0.023561 -0.016057 -0.001895
										CHANNELS 3 Zrotation Yrotation Xrotation
										JOINT left_ring_3
										{
											OFFSET 0.004257 -0.023548 0.000814
											CHANNELS 3 Zrotation Yrotation Xrotation
											End Site
											{
												OFFSET 0.000000 0.000000 0.000000
											}
										}
									}
								}
								JOINT left_thumb_1
								{
									OFFSET 0.040636 -0.017977 0.025611
									CHANNELS 3 Zrotation Yrotation Xrotation
									JOINT left_thumb_2
									{
										OFFSET 0.021637 -0.017639 0.011623
										CHANNELS 3 Zrotation Yrotation Xrotation
										JOINT left_thumb_3
										{
											OFFSET 0.024002 -0.008356 0.006548
											CHANNELS 3 Zrotation Yrotation Xrotation
											End Site
											{
												OFFSET 0.000000 0.000000 0.000000
											}
										}
									}
								}
							}
						}
					}
				}
				JOINT right_collar
				{
					OFFSET -0.047695 0.084339 -0.013400
					CHANNELS 3 Zrotation Yrotation Xrotation
					JOINT right_shoulder
					{
						OFFSET -0.102578 0.053524 -0.012669
						CHANNELS 3 Zrotation Yrotation Xrotation
						JOINT right_elbow
						{
							OFFSET -0.271150 -0.036492 -0.026467
							CHANNELS 3 Zrotation Yrotation Xrotation
							JOINT right_wrist
							{
								OFFSET -0.249267 -0.004533 -0.015325
								CHANNELS 3 Zrotation Yrotation Xrotation
								JOINT right_index_1
								{
									OFFSET -0.099881 -0.011783 0.019600
									CHANNELS 3 Zrotation Yrotation Xrotation
									JOINT right_index_2
									{
										OFFSET -0.030148 -0.011154 0.001151
										CHANNELS 3 Zrotation Yrotation Xrotation
										JOINT right_index_3
										{
											OFFSET -0.006505 -0.021577 -0.002432
											CHANNELS 3 Zrotation Yrotation Xrotation
											End Site
											{
												OFFSET 0.000000 0.000000 0.000000
											}
										}
									}
								}
								JOINT right_middle_1
								{
									OFFSET -0.107376 -0.009422 -0.003734
									CHANNELS 3 Zrotation Yrotation Xrotation
									JOINT right_middle_2
									{
										OFFSET -0.026472 -0.015218 -0.004641
										CHANNELS 3 Zrotation Yrotation Xrotation
										JOINT right_middle_3
										{
											OFFSET -0.005022 -0.023347 -0.001911
											CHANNELS 3 Zrotation Yrotation Xrotation
											End Site
											{
												OFFSET 0.000000 0.000000 0.000000
											}
										}
									}
								}
								JOINT right_pinky_1
								{
									OFFSET -0.082027 -0.017634 -0.043503
									CHANNELS 3 Zrotation Yrotation Xrotation
									JOINT right_pinky_2
									{
										OFFSET -0.012123 -0.014448 -0.005374
										CHANNELS 3 Zrotation Yrotation Xrotation
										JOINT right_pinky_3
										{
											OFFSET -0.003798 -0.018852 0.000167
											CHANNELS 3 Zrotation Yrotation Xrotation
											End Site
											{
												OFFSET 0.000000 0.000000 0.000000
											}
										}
									}
								}
								JOINT right_ring_1
								{
									OFFSET -0.095423 -0.012362 -0.027099
									CHANNELS 3 Zrotation Yrotation Xrotation
									JOINT right_ring_2
									{
										OFFSET -0.023561 -0.016057 -0.001895
										CHANNELS 3 Zrotation Yrotation Xrotation
										JOINT right_ring_3
										{
											OFFSET -0.004257 -0.023548 0.000816
											CHANNELS 3 Zrotation Yrotation Xrotation
											End Site
											{
												OFFSET 0.000000 0.000000 0.000000
											}
										}
									}
								}
								JOINT right_thumb_1
								{
									OFFSET -0.038613 -0.021074 0.025861
									CHANNELS 3 Zrotation Yrotation Xrotation
									JOINT right_thumb_2
									{
										OFFSET -0.021636 -0.017639 0.011623
										CHANNELS 3 Zrotation Yrotation Xrotation
										JOINT right_thumb_3
										{
											OFFSET -0.024004 -0.008353 0.006547
											CHANNELS 3 Zrotation Yrotation Xrotation
											End Site
											{
												OFFSET 0.000000 0.000000 0.000000
											}
										}
									}
								}
							}
						}
					}
				}
			}
		}
	}
}
MOTION
Frames: 5
Frame Time: 0.050000
-0.004567 0.963665 -0.053528 0.035873 -8.325642 -5.864695 5.382243 0.781856 7.199712 8.664398 -2.039364 6.835014 -2.776473 -12.526763 -6.936997 0.000000 0.000000 0.000000 -3.289464 -0.338341 6.302075 -4.327357 1.033463 10.456404 -2.712889 -6.633687 2.252925 0.000000 0.000000 0.000000 6.740103 -1.747048 16.304077 -9.414963 -2.125355 -23.123424 5.042923 0.290559 31.951721 0.756837 1.455214 -10.967513 0.000000 0.000000 0.000000 17.044576 2.461853 -0.376921 -67.921433 -13.296897 -5.216066 -67.529524 -49.407239 42.525634 21.885016 0.738930 3.235659 -6.261764 4.670712 1.458370 6.367793 -1.032640 -0.994958 0.000000 0.000000 0.000000 -11.878548 -4.964984 -3.701533 3.906188 -0.568259 -1.597938 0.000000 0.000000 0.000000 17.879850 -12.520521 -9.614491 1.203917 -0.047290 -0.331313 0.000000 0.000000 0.000000 -3.285726 -6.486963 -3.864780 6.887378 -0.082115 -3.614537 0.000000 0.000000 0.000000 13.402686 9.841756 1.749640 -11.430673 -1.958533 2.540084 0.000000 0.000000 0.000000 -13.330536 1.114562 2.021026 73.354305 0.870736 -11.310143 79.511059 48.773859 38.357269 -9.941437 -1.683381 26.143165 12.486325 -6.109369 1.681593 -7.371774 -0.281988 6.125786 0.000000 0.000000 0.000000 14.922811 2.255397 -4.026276 -2.684836 -0.066486 5.462568 0.000000 0.000000 0.000000 -25.348435 14.237035 -4.759326 11.372018 -1.012084 -2.842474 0.000000 0.000000 0.000000 1.548531 4.986245 -2.844694 -0.122479 0.068400 0.336229 0.000000 0.000000 0.000000 -7.655783 -10.377586 8.474550 8.736445 2.123516 2.369254 0.000000 0.000000 0.000000 
-0.003036 0.965599 -0.050888 0.036110 -8.473343 -5.842706 4.711929 0.814765 7.147645 9.677484 -2.139340 6.557642 -3.176512 -12.371328 -5.886926 0.000000 0.000000 0.000000 -2.731057 -0.369691 5.936657 -4.772050 1.153812 11.060717 -3.380216 -8.225463 2.985237 0.000000 0.000000 0.000000 6.871691 -1.757725 16.307389 -9.400792 -2.142830 -23.141980 4.749372 -0.793099 31.496744 0.927091 1.673845 -12.513027 0.000000 0.000000 0.000000 20.290374 2.152434 -0.303230 -72.239868 -13.880051 -4.132776 -64.852089 -50.756100 41.564641 21.731930 1.134148 2.064314 -6.652755 4.697239 1.452543 5.252879 -0.893903 -1.259973 0.000000 0.000000 0.000000 -11.643814 -5.496407 -3.834310 1.320732 -0.343602 -1.502425 0.000000 0.000000 0.000000 17.701334 -12.633923 -10.180031 1.172866 -0.117027 -0.808771 0.000000 0.000000 0.000000 -3.325442 -6.985678 -4.145755 6.906242 -0.090197 -4.170669 0.000000 0.000000 0.000000 13.613582 9.550854 1.147371 -11.466180 -1.476514 2.636442 0.000000 0.000000 0.000000 -16.112203 0.948373 2.357408 76.884860 -0.150121 -13.050030 80.674006 46.881293 37.660181 -11.034471 -3.235351 28.065161 12.878570 -6.168775 1.624290 -9.291404 0.737067 4.552578 0.000000 0.000000 0.000000 14.671956 2.595447 -4.140771 -0.698633 -0.732492 6.482483 0.000000 0.000000 0.000000 -24.218111 13.016407 -3.240489 8.842803 -0.842339 -5.723651 0.000000 0.000000 0.000000 3.124312 3.685588 -2.269791 -2.115141 0.281901 -1.497720 0.000000 0.000000 0.000000 -7.081417 -10.214164 8.537243 7.659262 2.048012 2.059427 0.000000 0.000000 0.000000 
-0.001387 0.967533 -0.050888 0.037178 -9.518031 -5.704826 4.012047 0.793701 6.547933 10.270074 -2.397995 7.456816 -2.913354 -11.092331 -5.369495 0.000000 0.000000 0.000000 -2.234323 -0.342067 5.138774 -5.202971 1.237423 11.259016 -3.852270 -9.624366 4.095969 0.000000 0.000000 0.000000 7.056729 -1.758796 16.164476 -9.452147 -2.122576 -22.910592 4.363827 -1.345993 31.924614 1.240844 2.037577 -14.915612 0.000000 0.000000 0.000000 23.711937 2.499210 -0.500907 -76.649813 -15.747110 -2.194150 -60.693836 -52.253415 39.557809 22.128375 1.429124 0.252784 -6.930269 4.771156 1.434918 2.340693 -0.639701 -1.921238 0.000000 0.000000 0.000000 -14.963381 -4.839260 -3.776506 3.076254 -0.577357 -3.395750 0.000000 0.000000 0.000000 14.998915 -12.314168 -10.734599 1.322810 -0.201981 -1.376141 0.000000 0.000000 0.000000 -5.234343 -7.367282 -4.264493 6.408761 -0.117316 -4.779992 0.000000 0.000000 0.000000 13.029930 8.738938 0.329526 -10.483562 0.069478 2.741112 0.000000 0.000000 0.000000 -18.845315 0.695771 2.692241 80.525229 0.018617 -14.389716 81.165106 45.129316 36.874711 -12.236978 -3.082828 28.943674 14.296900 -7.963283 1.927631 -8.939604 0.304265 5.729528 0.000000 0.000000 0.000000 15.938735 1.216856 -3.903593 -2.751879 0.178390 4.939773 0.000000 0.000000 0.000000 -24.826619 12.939404 -3.013613 12.630445 -1.291117 -5.346979 0.000000 0.000000 0.000000 3.473266 2.732087 -1.870239 0.700626 0.018456 -0.229165 0.000000 0.000000 0.000000 -6.314327 -10.408836 8.902861 7.096577 1.762752 1.943140 0.000000 0.000000 0.000000 
0.004090 0.968822 -0.050888 -0.504682 -11.823196 -5.700064 3.301942 0.850392 6.513590 10.898970 -2.437215 7.109534 -2.329867 -7.735421 -3.428108 0.000000 0.000000 0.000000 -1.866283 -0.403798 5.659161 -5.324890 1.206005 10.791807 -3.534906 -8.075381 2.276471 0.000000 0.000000 0.000000 7.109028 -1.786131 16.279828 -9.788041 -2.091526 -22.722410 4.711165 -1.394679 31.341776 1.332281 2.040205 -15.005273 0.000000 0.000000 0.000000 25.405523 2.483294 -0.719424 -79.378362 -15.160334 -1.206463 -57.995129 -53.243627 38.115299 21.817516 1.748825 -0.213274 -6.670102 5.041530 1.491181 1.653197 -0.810782 -3.127036 0.000000 0.000000 0.000000 -15.451762 -4.810649 -3.802653 3.656094 -0.692743 -4.417920 0.000000 0.000000 0.000000 13.206640 -12.019842 -10.856775 2.836683 -0.256086 -1.987755 0.000000 0.000000 0.000000 -6.189321 -7.320672 -4.223878 5.336905 -0.228912 -5.113773 0.000000 0.000000 0.000000 13.431247 8.586404 -0.092335 -11.025115 0.108150 2.875205 0.000000 0.000000 0.000000 -21.502923 1.255098 3.366880 82.388979 -0.097442 -15.854133 82.428342 44.724216 37.677664 -12.706110 -4.672361 29.552587 13.974230 -6.861839 1.672877 -6.760611 -0.822196 7.051841 0.000000 0.000000 0.000000 15.475178 2.561684 -4.309466 -0.469576 -0.592715 5.748082 0.000000 0.000000 0.000000 -23.312267 11.961099 -2.103090 9.832620 -1.033614 -8.865287 0.000000 0.000000 0.000000 2.810664 4.577742 -2.638978 2.390266 -0.247376 1.326525 0.000000 0.000000 0.000000 -5.734898 -10.422778 9.095266 4.415390 3.948825 0.479276 0.000000 0.000000 0.000000 
0.009655 0.970112 -0.050888 -1.143847 -13.196880 -5.305110 2.679519 0.770477 5.667079 11.500256 -2.646833 7.741286 -1.463079 -4.820582 -2.365039 0.000000 0.000000 0.000000 -1.222357 -0.468337 5.683535 -5.543028 1.241774 10.843972 -3.550233 -7.172712 0.802601 0.000000 0.000000 0.000000 7.199837 -1.745026 15.717387 -9.684671 -2.090839 -22.296969 4.363539 -2.341505 31.113533 1.622660 2.274087 -16.427440 0.000000 0.000000 0.000000 27.092274 2.501805 -1.016687 -82.127095 -14.521266 -0.054435 -54.842267 -54.436507 36.413786 22.019175 2.067899 -1.540392 -7.542129 5.083407 1.484804 0.830636 -0.506140 -2.347380 0.000000 0.000000 0.000000 -15.602068 -4.972583 -3.806486 3.559208 -0.672678 -4.895666 0.000000 0.000000 0.000000 12.540555 -12.074617 -11.370592 0.917737 -0.209644 -1.323347 0.000000 0.000000 0.000000 -6.474441 -7.589111 -4.339051 5.561564 -0.208739 -5.342453 0.000000 0.000000 0.000000 13.599250 8.449071 -0.501579 -11.089822 0.252626 2.900283 0.000000 0.000000 0.000000 -23.608040 0.697786 3.707689 83.665845 0.231468 -17.174655 83.662266 43.230466 37.487416 -13.378531 -5.940707 30.801507 13.607426 -6.553601 1.598411 -7.857680 0.368500 4.574930 0.000000 0.000000 0.000000 17.234149 0.522544 -3.996542 -2.682778 0.415579 3.403364 0.000000 0.000000 0.000000 -24.253592 13.818056 -3.740432 15.559964 -2.106858 -3.303468 0.000000 0.000000 0.000000 2.128823 5.746842 -3.131096 4.511939 -0.649375 2.408160 0.000000 0.000000 0.000000 -5.339126 -10.910621 9.757384 3.708444 4.327135 0.123213 0.000000 0.000000 0.000000 
